<?xml version="1.0" standalone="no"?>
<!DOCTYPE svg PUBLIC "-//W3C//DTD SVG 20010904//EN"
 "http://www.w3.org/TR/2001/REC-SVG-20010904/DTD/svg10.dtd">
<svg version="1.0" xmlns="http://www.w3.org/2000/svg"
 width="100.000000pt" height="25.000000pt" viewBox="0 0 100.000000 25.000000"
 preserveAspectRatio="xMidYMid meet">

<g transform="translate(0.000000,25.000000) scale(0.100000,-0.100000)"
fill="#000000" stroke="none">
<path d="M15 198 c-3 -24 -5 -74 -3 -113 3 -64 5 -70 26 -73 21 -3 22 -1 23
85 l1 88 30 -88 c28 -83 32 -88 57 -85 23 3 29 12 52 83 l27 80 3 -80 c4 -74
6 -80 27 -83 22 -3 22 -2 22 113 l0 116 -42 -3 c-41 -3 -42 -3 -62 -65 -12
-34 -24 -64 -27 -68 -4 -3 -17 26 -29 64 l-22 71 -38 0 c-38 0 -39 -1 -45 -42z"/>
<path d="M444 218 c40 -56 6 -128 -59 -128 -34 0 -35 -1 -35 -40 l0 -41 63 3
62 3 3 113 3 112 -26 0 c-25 0 -25 -1 -11 -22z"/>
<path d="M720 130 c0 -103 1 -110 20 -110 17 0 19 8 22 83 l3 82 25 -80 c24
-76 27 -80 57 -83 31 -3 31 -2 53 72 13 42 27 76 31 76 5 0 9 -34 9 -75 0 -68
2 -75 20 -75 19 0 20 7 20 110 l0 110 -39 0 -39 0 -22 -65 c-12 -36 -25 -67
-30 -70 -4 -3 -18 27 -31 65 l-23 70 -38 0 -38 0 0 -110z"/>
<path d="M529 201 c-50 -51 -36 -137 28 -170 32 -16 84 -13 116 7 26 18 26 19
10 35 -16 13 -20 14 -37 1 -11 -8 -28 -14 -38 -14 -28 0 -58 37 -58 70 0 36
38 65 75 58 26 -6 51 14 40 32 -3 5 -29 10 -56 10 -42 0 -55 -5 -80 -29z"/>
<path d="M350 165 c0 -22 4 -26 23 -23 14 2 22 10 22 23 0 13 -8 21 -22 23
-19 3 -23 -1 -23 -23z"/>
</g>
</svg>
